# xmcd
#
# Track frame offsets: 
#        150
#        15657
#        34618
#        55356
#        82518
#        103026
#
# Disc length: 1699 seconds
#
# Revision: 0
# Processed by: cddbd v1.5.2PL0 Copyright (c) Steve Scherf et al.
# Submitted via: ExactAudioCopyFreeDBPlugin 1.0
#
DISCID=3906a106
DTITLE=Eric Ramsey - It's a Rough World, Baby
DYEAR=2017
DGENRE=Blues
TTITLE0=Big Ol' Bunch Of Your Love
TTITLE1=It's A Rough World, Baby
TTITLE2=Highway
TTITLE3=Please
TTITLE4=Somehow She Loves Me
TTITLE5=Crash On The Levee (Down In The Flood)
EXTD=
EXTT0=
EXTT1=
EXTT2=
EXTT3=
EXTT4=
EXTT5=
PLAYORDER=
